<?xml version="1.0" encoding="UTF-8" standalone="no"?>
<!-- Svg Vector Icons : http://www.onlinewebfonts.com/icon -->

<svg
   version="1.1"
   x="0px"
   y="0px"
   viewBox="0 0 83.345238 100"
   enable-background="new 0 0 1000 1000"
   xml:space="preserve"
   id="svg348"
   width="83.345238"
   height="100"
   xmlns="http://www.w3.org/2000/svg"
   xmlns:svg="http://www.w3.org/2000/svg"><defs
   id="defs352" />
<g id="g346" transform="matrix(0.10205123,0,0,0.10205123,-9.3580978,-1.0307174)"><g transform="matrix(1,0,0,-1,0,1920)" id="g344"><path d="m 183.1,930 c -25.3,0 -46.9,8.9 -64.7,26.7 -17.8,17.8 -26.7,39.4 -26.7,64.7 v 102.9 c 0,23.4 7.8,43.7 23.5,60.8 15.7,17.2 35,27.1 58.2,29.8 v 410 c -15,1.6 -28.7,6.7 -41.2,15.1 -12.5,8.4 -22.4,19.3 -29.6,32.5 -7.2,13.2 -10.8,27.6 -10.8,43.1 v 102.9 c 0,25.3 8.9,46.9 26.7,64.7 17.8,17.8 39.4,26.7 64.7,26.7 H 286 c 25.3,0 46.9,-8.9 64.7,-26.7 17.8,-17.8 26.7,-39.4 26.7,-64.7 v -102.9 c 0,-23.4 -7.8,-43.7 -23.5,-60.8 -15.7,-17.1 -35,-27.1 -58.2,-29.8 v -410 c 23.1,-2.7 42.5,-12.7 58.2,-29.8 15.7,-17.1 23.5,-37.4 23.5,-60.8 v -102.9 c 0,-25.3 -8.9,-46.9 -26.7,-64.7 C 332.9,938.9 311.4,930 286,930 Z m 530.9,0 c -25.3,0 -46.9,8.9 -64.7,26.7 -17.8,17.8 -26.7,39.4 -26.7,64.7 v 102.9 c 0,23.4 7.8,43.7 23.5,60.8 15.7,17.2 35,27.1 58.2,29.8 v 450 H 581.7 V 1584 L 422.9,1726.5 581.7,1869 v -81.7 h 245 V 1215 c 23.1,-2.7 42.5,-12.7 58.2,-29.8 15.7,-17.1 23.5,-37.4 23.5,-60.8 v -102.9 c 0,-25.3 -8.9,-46.9 -26.7,-64.7 C 863.9,939 842.3,930.1 817,930.1 H 714 Z M 183.1,1705.8 H 286 c 2.7,0 5,1 6.9,2.9 1.9,1.9 2.9,4.2 2.9,6.9 v 102.9 c 0,2.7 -1,5 -2.9,6.9 -1.9,1.9 -4.2,2.9 -6.9,2.9 H 183.1 c -2.7,0 -5,-1 -6.9,-2.9 -1.9,-1.9 -2.9,-4.2 -2.9,-6.9 v -102.9 c 0,-2.7 1,-5 2.9,-6.9 1.9,-1.9 4.2,-2.9 6.9,-2.9 z m 0,-694.1 H 286 c 2.7,0 5,1 6.9,2.9 1.9,1.9 2.9,4.2 2.9,6.9 v 102.9 c 0,2.7 -1,5 -2.9,6.9 -1.9,1.9 -4.2,2.9 -6.9,2.9 H 183.1 c -2.7,0 -5,-1 -6.9,-2.9 -1.9,-1.9 -2.9,-4.2 -2.9,-6.9 v -102.9 c 0,-2.7 1,-5 2.9,-6.9 1.9,-2 4.2,-2.9 6.9,-2.9 z m 530.9,0 h 102.9 c 2.7,0 5,1 6.9,2.9 1.9,1.9 2.9,4.2 2.9,6.9 v 102.9 c 0,2.7 -1,5 -2.9,6.9 -1.9,1.9 -4.2,2.9 -6.9,2.9 H 714 c -2.7,0 -5,-1 -6.9,-2.9 -1.9,-1.9 -2.9,-4.2 -2.9,-6.9 v -102.9 c 0,-2.7 1,-5 2.9,-6.9 1.8,-2 4.1,-2.9 6.9,-2.9 z" id="path342" /></g></g>
</svg>
