<?xml version="1.0" encoding="UTF-8" standalone="no"?>
<!-- Svg Vector Icons : http://www.onlinewebfonts.com/icon -->

<svg
   version="1.1"
   x="0px"
   y="0px"
   viewBox="0 0 87.354568 100.00001"
   enable-background="new 0 0 1000 1000"
   xml:space="preserve"
   id="svg278"
   width="87.354568"
   height="100.00001"
   xmlns="http://www.w3.org/2000/svg"
   xmlns:svg="http://www.w3.org/2000/svg"><defs
   id="defs282" />
<g id="g276" transform="matrix(0.10206165,0,0,0.10206165,-7.358645,-1.0410288)"><g transform="matrix(1,0,0,-1,0,1920)" id="g274"><path d="m 163.5,930 c -25.3,0 -46.9,8.9 -64.7,26.7 -17.8,17.8 -26.7,39.4 -26.7,64.7 v 102.9 c 0,23.4 7.8,43.7 23.5,60.8 15.7,17.1 35,27.1 58.2,29.8 v 410 c -23.1,2.7 -42.5,12.7 -58.2,29.8 -15.7,17.2 -23.5,37.4 -23.5,60.8 v 102.9 c 0,25.3 8.9,46.9 26.7,64.7 17.8,17.8 39.4,26.7 64.7,26.7 h 102.9 c 25.3,0 46.9,-8.9 64.7,-26.7 17.8,-17.8 26.7,-39.4 26.7,-64.7 v -102.9 c 0,-23.4 -7.8,-43.7 -23.5,-60.8 -15.7,-17.1 -35,-27.1 -58.2,-29.8 v -205 h 172.3 l 102.1,102.5 86.6,-86.6 -119.6,-120.5 c -12,-12 -26.4,-18 -43.3,-18 h -198 V 1215 c 23.1,-2.7 42.5,-12.7 58.2,-29.8 15.7,-17.2 23.5,-37.4 23.5,-60.8 v -102.9 c 0,-25.3 -8.9,-46.9 -26.7,-64.7 -17.8,-17.8 -39.4,-26.7 -64.7,-26.7 h -103 z m 0,775.8 h 102.9 c 2.7,0 5,1 6.9,2.9 1.9,1.9 2.9,4.2 2.9,6.9 v 102.9 c 0,2.7 -1,5 -2.9,6.9 -1.9,1.9 -4.2,2.9 -6.9,2.9 H 163.5 c -2.7,0 -5,-1 -6.9,-2.9 -1.9,-1.9 -2.9,-4.2 -2.9,-6.9 v -102.9 c 0,-2.7 1,-5 2.9,-6.9 1.9,-1.9 4.2,-2.9 6.9,-2.9 z m 516.2,-202.5 -75.1,75.1 86.6,86.6 -86.6,86.6 75.1,75.1 86.6,-86.6 86.6,86.6 75.1,-75.1 -86.6,-86.6 86.6,-86.6 -75.1,-75.1 -86.6,86.6 z M 163.5,1011.7 h 102.9 c 2.7,0 5,1 6.9,2.9 1.9,1.9 2.9,4.2 2.9,6.9 v 102.9 c 0,2.7 -1,5 -2.9,6.9 -1.9,1.9 -4.2,2.9 -6.9,2.9 H 163.5 c -2.7,0 -5,-1 -6.9,-2.9 -1.9,-1.9 -2.9,-4.2 -2.9,-6.9 v -102.9 c 0,-2.7 1,-5 2.9,-6.9 1.9,-2 4.2,-2.9 6.9,-2.9 z" id="path272" /></g></g>
</svg>
