<?xml version="1.0" encoding="UTF-8" standalone="no"?>
<!-- Svg Vector Icons : http://www.onlinewebfonts.com/icon -->

<svg
   version="1.1"
   x="0px"
   y="0px"
   viewBox="0 0 87.497452 100.00001"
   enable-background="new 0 0 1000 1000"
   xml:space="preserve"
   id="svg313"
   width="87.497452"
   height="100.00001"
   xmlns="http://www.w3.org/2000/svg"
   xmlns:svg="http://www.w3.org/2000/svg"><defs
   id="defs317" />
<g id="g311" transform="matrix(0.10206165,0,0,0.10206165,-7.2769956,-1.0410288)"><g transform="matrix(1,0,0,-1,0,1920)" id="g309"><path d="m 162.7,930 c -25.3,0 -46.9,8.9 -64.7,26.7 -17.8,17.8 -26.7,39.4 -26.7,64.7 v 102.9 c 0,23.4 7.8,43.7 23.5,60.8 15.7,17.1 35,27.1 58.2,29.8 v 410 c -23.1,2.7 -42.5,12.7 -58.2,29.8 -15.7,17.1 -23.5,37.4 -23.5,60.8 v 102.9 c 0,25.3 8.9,46.9 26.7,64.7 17.8,17.8 39.4,26.7 64.7,26.7 h 102.9 c 25.3,0 46.9,-8.9 64.7,-26.7 17.8,-17.8 26.7,-39.4 26.7,-64.7 v -102.9 c 0,-23.4 -7.8,-43.7 -23.5,-60.8 -15.7,-17.2 -35,-27.1 -58.2,-29.8 v -38.8 l 174,-166.2 h 194.8 c 2.5,21.2 12.4,40.2 29.8,56.8 17.4,16.6 37.6,24.9 60.4,24.9 h 102.9 c 12.5,0 24.4,-2.5 35.7,-7.4 11.3,-4.9 21,-11.4 29.2,-19.6 8.2,-8.2 14.6,-17.9 19.4,-29.2 4.8,-11.3 7.1,-23.1 7.1,-35.3 v -102.9 c 0,-25.3 -8.9,-46.9 -26.7,-64.7 -17.8,-17.8 -39.4,-26.7 -64.7,-26.7 H 734.4 c -22.9,0 -43,8.3 -60.4,24.9 -17.4,16.6 -27.4,35.5 -29.8,56.8 H 424.5 c -16.3,0 -30.4,5.7 -42.1,17.1 l -107,102.1 V 1215 c 23.1,-2.7 42.5,-12.7 58.2,-29.8 15.7,-17.1 23.5,-37.4 23.5,-60.8 v -102.9 c 0,-25.3 -8.9,-46.9 -26.7,-64.7 C 312.6,939 290.9,930 265.6,930 Z m 0,775.8 h 102.9 c 2.7,0 5,1 6.9,2.9 1.9,1.9 2.9,4.2 2.9,6.9 v 102.9 c 0,2.7 -1,5 -2.9,6.9 -1.9,1.9 -4.2,2.9 -6.9,2.9 H 162.7 c -2.7,0 -5,-1 -6.9,-2.9 -1.9,-1.9 -2.9,-4.2 -2.9,-6.9 v -102.9 c 0,-2.7 1,-5 2.9,-6.9 1.9,-1.9 4.2,-2.9 6.9,-2.9 z m 571.7,-408.3 h 102.9 c 2.7,0 5,1 6.9,2.9 1.9,1.9 2.9,4.2 2.9,6.9 v 102.9 c 0,2.7 -1,5 -2.9,6.9 -1.9,1.9 -4.2,2.9 -6.9,2.9 H 734.4 c -2.7,0 -5,-1 -6.9,-2.9 -1.9,-1.9 -2.9,-4.2 -2.9,-6.9 v -102.9 c 0,-2.7 1,-5 2.9,-6.9 1.8,-1.9 4.2,-2.9 6.9,-2.9 z M 162.7,1011.7 h 102.9 c 2.7,0 5,1 6.9,2.9 1.9,1.9 2.9,4.2 2.9,6.9 v 102.9 c 0,2.7 -1,5 -2.9,6.9 -1.9,1.9 -4.2,2.9 -6.9,2.9 H 162.7 c -2.7,0 -5,-1 -6.9,-2.9 -1.9,-1.9 -2.9,-4.2 -2.9,-6.9 v -102.9 c 0,-2.7 1,-5 2.9,-6.9 1.9,-1.9 4.2,-2.9 6.9,-2.9 z" id="path307" /></g></g>
</svg>
