<?xml version="1.0" encoding="UTF-8" standalone="no"?>
<!-- Svg Vector Icons : http://www.onlinewebfonts.com/icon -->

<svg
   version="1.1"
   x="0px"
   y="0px"
   viewBox="0 0 79.863289 100"
   enable-background="new 0 0 1000 1000"
   xml:space="preserve"
   id="svg24"
   width="79.863289"
   height="100"
   xmlns="http://www.w3.org/2000/svg"
   xmlns:svg="http://www.w3.org/2000/svg"><defs
   id="defs28" />
<g id="g22" transform="matrix(0.10296969,0,0,0.10205123,-11.553199,-1.0307174)"><g transform="matrix(1,0,0,-1,0,1920)" id="g20"><path d="m 203.6,930 c -25.3,0 -46.9,8.9 -64.7,26.7 -17.8,17.8 -26.7,39.4 -26.7,64.7 v 102.9 c 0,23.4 7.8,43.7 23.5,60.8 15.7,17.1 35,27.1 58.2,29.8 v 410 c -15,1.6 -28.7,6.7 -41.2,15.1 -12.5,8.4 -22.4,19.3 -29.6,32.5 -7.2,13.2 -10.8,27.6 -10.8,43.1 v 102.9 c 0,25.3 8.9,46.9 26.7,64.7 17.8,17.8 39.4,26.7 64.7,26.7 h 102.9 c 25.3,0 46.9,-8.9 64.7,-26.7 17.8,-17.8 26.7,-39.4 26.7,-64.7 v -102.9 c 0,-23.4 -7.8,-43.7 -23.5,-60.8 -15.7,-17.1 -35,-27.1 -58.2,-29.8 v -205 h 172.3 l 115.1,116.4 c -1.1,6.3 -1.6,11.6 -1.6,15.9 v 102.9 c 0,25.3 8.9,46.9 26.7,64.7 17.8,17.8 39.4,26.7 64.7,26.7 h 102.9 c 12.5,0 24.4,-2.5 35.5,-7.4 11.2,-4.9 20.8,-11.4 29,-19.6 8.2,-8.2 14.7,-17.9 19.6,-29.2 4.9,-11.3 7.3,-23.1 7.3,-35.3 v -102.9 c 0,-25.3 -8.9,-46.9 -26.7,-64.7 -17.8,-17.8 -39.4,-26.7 -64.7,-26.7 H 701.3 L 557.6,1315.4 c -12,-12 -26.4,-18 -43.3,-18 h -198 V 1215 c 23.1,-2.7 42.5,-12.7 58.2,-29.8 15.7,-17.2 23.5,-37.4 23.5,-60.8 v -102.9 c 0,-25.3 -8.9,-46.9 -26.7,-64.7 -17.8,-17.8 -39.4,-26.7 -64.7,-26.7 h -103 z m 0,775.8 h 102.9 c 2.7,0 5,1 6.9,2.9 1.9,1.9 2.9,4.2 2.9,6.9 v 102.9 c 0,2.7 -1,5 -2.9,6.9 -1.9,1.9 -4.2,2.9 -6.9,2.9 H 203.6 c -2.7,0 -5,-1 -6.9,-2.9 -1.9,-1.9 -2.9,-4.2 -2.9,-6.9 v -102.9 c 0,-2.7 1,-5 2.9,-6.9 1.8,-1.9 4.1,-2.9 6.9,-2.9 z m 490,-163.3 h 102.9 c 2.7,0 5,1 6.9,2.9 1.9,1.9 2.9,4.2 2.9,6.9 v 102.9 c 0,2.7 -1,5 -2.9,6.9 -1.9,1.9 -4.2,2.9 -6.9,2.9 H 693.6 c -2.7,0 -5,-1 -6.9,-2.9 -1.9,-1.9 -2.9,-4.2 -2.9,-6.9 v -102.9 c 0,-2.7 1,-5 2.9,-6.9 1.8,-1.9 4.1,-2.9 6.9,-2.9 z m -490,-530.8 h 102.9 c 2.7,0 5,1 6.9,2.9 1.9,1.9 2.9,4.2 2.9,6.9 v 102.9 c 0,2.7 -1,5 -2.9,6.9 -1.9,1.9 -4.2,2.9 -6.9,2.9 H 203.6 c -2.7,0 -5,-1 -6.9,-2.9 -1.9,-1.9 -2.9,-4.2 -2.9,-6.9 v -102.9 c 0,-2.7 1,-5 2.9,-6.9 1.8,-2 4.1,-2.9 6.9,-2.9 z" id="path18" /></g></g>
</svg>
