<?xml version="1.0" encoding="UTF-8" standalone="no"?>
<svg width="100" height="100" viewBox="0 0 100 100" version="1.1" xml:space="preserve" style="clip-rule:evenodd;fill-rule:evenodd;stroke-linejoin:round;stroke-miterlimit:2" id="svg93" sodipodi:docname="eye_slash_visible_hide_hidden_show_icon_145987.svg" inkscape:export-filename="eye_slash.svg" inkscape:export-xdpi="150" inkscape:export-ydpi="150"
  xmlns:inkscape="http://www.inkscape.org/namespaces/inkscape"
  xmlns:sodipodi="http://sodipodi.sourceforge.net/DTD/sodipodi-0.dtd"
  xmlns="http://www.w3.org/2000/svg"
  xmlns:svg="http://www.w3.org/2000/svg"
  xmlns:serif="http://www.serif.com/">
  <defs id="defs97" />
  <sodipodi:namedview id="namedview95" pagecolor="#ffffff" bordercolor="#000000" borderopacity="0.25" inkscape:showpageshadow="2" inkscape:pageopacity="0.0" inkscape:pagecheckerboard="0" inkscape:deskcolor="#d1d1d1" showgrid="false" />
  <g id="Icons1" serif:id="Icons" inkscape:label="eye-slash" transform="matrix(2.0877698,0,0,2.0877698,-16.915111,-21.597979)"><path d="m 13.673,12.819001 -3.097,3.096 39.853,39.854 3.097,-3.097 z" id="path80" style="clip-rule:evenodd;fill-rule:evenodd;stroke-linejoin:round;stroke-miterlimit:2" /><path d="m 17.119,22.449899 2.915,2.915 c -3.191,2.717 -5.732,6.099 -7.374,9.058 l -0.005,0.01 c 4.573,7.646 11.829,14.872 20.987,13.776 2.472,-0.296 4.778,-1.141 6.885,-2.35 l 2.951,2.95 c -4.107,2.636 -8.815,4.032 -13.916,3.342 -9.198,-1.244 -16.719,-8.788 -21.46,-17.648 2.226,-4.479 5.271,-8.764 9.017,-12.053 z m 6.63,-4.32 c 2.572,-1.146 5.355,-1.82 8.327,-1.868 0.165,-0.001 2.124,0.092 3.012,0.238 0.557,0.092 1.112,0.207 1.659,0.35 8.725,2.273 15.189,9.649 19.253,17.248 -1.705,3.443 -3.938,6.803 -6.601,9.682 l -2.827,-2.827 c 1.967,-2.12 3.607,-4.48 4.87,-6.769 0,0 -1.27,-2.042 -2.233,-3.324 -0.619,-0.824 -1.27,-1.624 -1.954,-2.395 -0.54,-0.608 -2.637,-2.673 -3.136,-3.103 -3.348,-2.879 -7.279,-5.138 -11.994,-5.1 -1.826,0.029 -3.582,0.389 -5.249,0.995 z" style="clip-rule:evenodd;fill-rule:nonzero;stroke-linejoin:round;stroke-miterlimit:2" id="path82" /><path d="m 25.054,30.380001 2.399,2.398 c -0.157,0.477 -0.243,0.987 -0.243,1.516 0,2.672 2.169,4.841 4.841,4.841 0.529,0 1.039,-0.085 1.516,-0.243 l 2.399,2.399 c -1.158,0.65 -2.494,1.02 -3.915,1.02 -4.425,0 -8.017,-3.592 -8.017,-8.017 0,-1.421 0.371,-2.756 1.02,-3.914 z m 6.849,-4.101 c 0.049,-0.001 0.099,-0.002 0.148,-0.002 4.425,0 8.017,3.593 8.017,8.017 0,0.05 0,0.099 -10e-4,0.148 z" id="path84" style="clip-rule:evenodd;fill-rule:evenodd;stroke-linejoin:round;stroke-miterlimit:2" /></g>
</svg>
