<?xml version="1.0" encoding="UTF-8" standalone="no"?>
<svg width="100" height="100" viewBox="0 0 100 99.999999" version="1.1" xml:space="preserve" style="clip-rule:evenodd;fill-rule:evenodd;stroke-linejoin:round;stroke-miterlimit:2" id="svg449"
  xmlns="http://www.w3.org/2000/svg"
  xmlns:svg="http://www.w3.org/2000/svg"
  xmlns:serif="http://www.serif.com/">
  <defs id="defs453" />
  <g id="Icons1" serif:id="Icons" transform="matrix(2.0877698,0,0,2.0877698,-17.138502,-29.073804)"><path d="m 32.513,19.849919 c 10.574,0.15 19.249,9.657 23.594,17.837 0,0 -1.529,3.129 -2.963,5.132 -0.694,0.969 -1.424,1.913 -2.191,2.826 -0.547,0.65 -1.112,1.283 -1.698,1.898 -5.237,5.5 -12.758,9.603 -20.7,8.01 -8.823,-1.77 -16.02,-9.33 -20.346,-17.461 0,0 1.536,-3.132 2.978,-5.132 0.646,-0.897 1.324,-1.77 2.034,-2.617 0.544,-0.649 1.108,-1.282 1.691,-1.897 4.627,-4.876 10.564,-8.63 17.601,-8.596 z m -0.037,4 c -5.89,-0.022 -10.788,3.267 -14.663,7.35 -0.527,0.555 -1.035,1.127 -1.527,1.713 -0.647,0.772 -1.265,1.569 -1.854,2.386 -0.589,0.816 -1.193,1.846 -1.672,2.721 3.814,6.409 9.539,12.198 16.582,13.611 6.563,1.317 12.688,-2.301 17.016,-6.846 0.529,-0.555 1.04,-1.128 1.534,-1.715 0.7,-0.833 1.366,-1.694 1.999,-2.579 0.586,-0.819 1.189,-1.851 1.667,-2.727 -3.958,-6.625 -10.73,-13.784 -19.082,-13.914 z" id="path439" style="clip-rule:evenodd;fill-rule:evenodd;stroke-linejoin:round;stroke-miterlimit:2" /><path d="m 32.158,29.857771 c 4.425,0 8.018,3.593 8.018,8.017 0,4.425 -3.593,8.017 -8.018,8.017 -4.424,0 -8.017,-3.592 -8.017,-8.017 0,-4.424 3.593,-8.017 8.017,-8.017 z m 0,4.009 c 2.213,0 4.009,1.796 4.009,4.008 0,2.213 -1.796,4.009 -4.009,4.009 -2.212,0 -4.008,-1.796 -4.008,-4.009 0,-2.212 1.796,-4.008 4.008,-4.008 z" id="path441" style="clip-rule:evenodd;fill-rule:evenodd;stroke-linejoin:round;stroke-miterlimit:2" /></g>
</svg>
